<svg xmlns="http://www.w3.org/2000/svg" viewBox="0 0 160 140" fill="none" role="img" aria-labelledby="krotMascotTitle">
  <title id="krotMascotTitle">Krot mole mascot</title>
  <desc>Grey mole with yellow snout, eyes, and paws on a dirt mound. Transparent background for marketing UI.</desc>
  <path
    d="M8 118c28-20 60-26 96-26s68 6 96 26v22H8v-22Z"
    fill="#2f2f2f"
  />
  <ellipse cx="80" cy="58" rx="52" ry="48" fill="#3d3d3d" />
  <ellipse cx="80" cy="72" rx="26" ry="18" fill="#EAB308" />
  <circle cx="71" cy="72" r="2.8" fill="#1a1a1a" />
  <circle cx="89" cy="72" r="2.8" fill="#1a1a1a" />
  <circle cx="58" cy="52" r="6" fill="#FACC15" />
  <circle cx="102" cy="52" r="6" fill="#FACC15" />
  <g stroke="#2a2a2a" stroke-width="2.4" stroke-linecap="round">
    <path d="M22 48 42 50" />
    <path d="M18 58 40 60" />
    <path d="M22 68 42 66" />
    <path d="M138 48 118 50" />
    <path d="M142 58 120 60" />
    <path d="M138 68 118 66" />
  </g>
  <path
    d="M28 96c-6 0-12 6-10 16h34c-2-12-10-18-24-16Zm104 0c-14-2-22 4-24 16h34c2-10-4-16-10-16-8 0-14 4-18 12l-6-4c-4-6-12-8-22-8Z"
    fill="#EAB308"
  />
  <path
    d="M34 108v10h12v-6c0-4-3-4-6-4h-6Zm92 0h-6c-3 0-6 0-6 4v6h12v-10Z"
    fill="#CA8A04"
  />
</svg>
